<?xml version="1.0" encoding="UTF-8" standalone="no"?>
<!DOCTYPE svg PUBLIC "-//W3C//DTD SVG 1.1//EN"
 "http://www.w3.org/Graphics/SVG/1.1/DTD/svg11.dtd">
<!-- Generated by graphviz version 2.47.0 (20210316.0004)
 -->
<!-- Title: dependencies Pages: 1 -->
<svg width="2165pt" height="284pt"
 viewBox="0.00 0.00 2165.00 284.00" xmlns="http://www.w3.org/2000/svg" xmlns:xlink="http://www.w3.org/1999/xlink">
<g id="graph0" class="graph" transform="scale(1 1) rotate(0) translate(4 280)">
<title>dependencies</title>
<polygon fill="white" stroke="transparent" points="-4,4 -4,-280 2161,-280 2161,4 -4,4"/>
<text text-anchor="start" x="1057.51" y="-42.4" font-family="Times-12" font-weight="bold" font-size="14.00">Legend</text>
<polygon fill="#ffffb3" stroke="transparent" points="844.5,-10 844.5,-30 864.5,-30 864.5,-10 844.5,-10"/>
<text text-anchor="start" x="868.13" y="-15.4" font-family="Times-12" font-size="14.00"> &#160;Declarations</text>
<polygon fill="#8dd3c7" stroke="transparent" points="957.5,-10 957.5,-30 977.5,-30 977.5,-10 957.5,-10"/>
<text text-anchor="start" x="981.23" y="-15.4" font-family="Times-12" font-size="14.00"> &#160;Module</text>
<polygon fill="#80b1d3" stroke="transparent" points="1043.5,-10 1043.5,-30 1063.5,-30 1063.5,-10 1043.5,-10"/>
<text text-anchor="start" x="1067.28" y="-15.4" font-family="Times-12" font-size="14.00"> &#160;Bootstrap</text>
<polygon fill="#fdb462" stroke="transparent" points="1140.5,-10 1140.5,-30 1160.5,-30 1160.5,-10 1140.5,-10"/>
<text text-anchor="start" x="1164.17" y="-15.4" font-family="Times-12" font-size="14.00"> &#160;Providers</text>
<polygon fill="#fb8072" stroke="transparent" points="1236.5,-10 1236.5,-30 1256.5,-30 1256.5,-10 1236.5,-10"/>
<text text-anchor="start" x="1260.23" y="-15.4" font-family="Times-12" font-size="14.00"> &#160;Exports</text>
<g id="clust1" class="cluster">
<title>cluster_AppModule</title>
<polygon fill="none" stroke="black" stroke-dasharray="1,5" points="8,-70 8,-268 2149,-268 2149,-70 8,-70"/>
</g>
<g id="clust2" class="cluster">
<title>cluster_AppModule_declarations</title>
<polygon fill="none" stroke="black" points="332,-78 332,-130 2141,-130 2141,-78 332,-78"/>
</g>
<g id="clust16" class="cluster">
<title>cluster_AppModule_imports</title>
<polygon fill="none" stroke="black" points="180,-78 180,-130 324,-130 324,-78 180,-78"/>
</g>
<g id="clust18" class="cluster">
<title>cluster_AppModule_bootstrap</title>
<polygon fill="none" stroke="black" points="1086,-208 1086,-260 1210,-260 1210,-208 1086,-208"/>
</g>
<g id="clust19" class="cluster">
<title>cluster_AppModule_providers</title>
<polygon fill="none" stroke="black" points="16,-78 16,-130 172,-130 172,-78 16,-78"/>
</g>
<!-- AdminComponent -->
<g id="node1" class="node">
<title>AdminComponent</title>
<polygon fill="#ffffb3" stroke="black" points="2133.22,-122 2012.78,-122 2012.78,-86 2133.22,-86 2133.22,-122"/>
<text text-anchor="middle" x="2073" y="-99.8" font-family="Times,serif" font-size="14.00">AdminComponent</text>
</g>
<!-- AppModule -->
<g id="node14" class="node">
<title>AppModule</title>
<polygon fill="#8dd3c7" stroke="black" points="1189.66,-187 1186.66,-191 1165.66,-191 1162.66,-187 1106.34,-187 1106.34,-151 1189.66,-151 1189.66,-187"/>
<text text-anchor="middle" x="1148" y="-164.8" font-family="Times,serif" font-size="14.00">AppModule</text>
</g>
<!-- AdminComponent&#45;&gt;AppModule -->
<g id="edge1" class="edge">
<title>AdminComponent&#45;&gt;AppModule</title>
<path fill="none" stroke="black" d="M2093.04,-122.38C2093.04,-146.28 2093.04,-185 2093.04,-185 2093.04,-185 1199.83,-185 1199.83,-185"/>
<polygon fill="black" stroke="black" points="1199.83,-181.5 1189.83,-185 1199.83,-188.5 1199.83,-181.5"/>
</g>
<!-- AdminComponent&#45;&gt;AppModule -->
<g id="edge17" class="edge">
<title>AdminComponent&#45;&gt;AppModule</title>
<path fill="none" stroke="black" d="M2052.96,-122.32C2052.96,-145.66 2052.96,-183 2052.96,-183 2052.96,-183 1199.83,-183 1199.83,-183"/>
<polygon fill="black" stroke="black" points="1199.83,-179.5 1189.83,-183 1199.83,-186.5 1199.83,-179.5"/>
</g>
<!-- AppComponent -->
<g id="node2" class="node">
<title>AppComponent</title>
<polygon fill="#ffffb3" stroke="black" points="1994.94,-122 1889.06,-122 1889.06,-86 1994.94,-86 1994.94,-122"/>
<text text-anchor="middle" x="1942" y="-99.8" font-family="Times,serif" font-size="14.00">AppComponent</text>
</g>
<!-- AppComponent&#45;&gt;AppModule -->
<g id="edge2" class="edge">
<title>AppComponent&#45;&gt;AppModule</title>
<path fill="none" stroke="black" d="M1959.57,-122.01C1959.57,-144.49 1959.57,-180 1959.57,-180 1959.57,-180 1199.92,-180 1199.92,-180"/>
<polygon fill="black" stroke="black" points="1199.92,-176.5 1189.92,-180 1199.92,-183.5 1199.92,-176.5"/>
</g>
<!-- AppComponent&#45;&gt;AppModule -->
<g id="edge18" class="edge">
<title>AppComponent&#45;&gt;AppModule</title>
<path fill="none" stroke="black" d="M1924.43,-122.29C1924.43,-144.21 1924.43,-178 1924.43,-178 1924.43,-178 1199.74,-178 1199.74,-178"/>
<polygon fill="black" stroke="black" points="1199.74,-174.5 1189.74,-178 1199.74,-181.5 1199.74,-174.5"/>
</g>
<!-- CartComponent -->
<g id="node3" class="node">
<title>CartComponent</title>
<polygon fill="#ffffb3" stroke="black" points="1871.94,-122 1766.06,-122 1766.06,-86 1871.94,-86 1871.94,-122"/>
<text text-anchor="middle" x="1819" y="-99.8" font-family="Times,serif" font-size="14.00">CartComponent</text>
</g>
<!-- CartComponent&#45;&gt;AppModule -->
<g id="edge3" class="edge">
<title>CartComponent&#45;&gt;AppModule</title>
<path fill="none" stroke="black" d="M1836.57,-122.28C1836.57,-143.32 1836.57,-175 1836.57,-175 1836.57,-175 1199.78,-175 1199.78,-175"/>
<polygon fill="black" stroke="black" points="1199.78,-171.5 1189.78,-175 1199.78,-178.5 1199.78,-171.5"/>
</g>
<!-- CartComponent&#45;&gt;AppModule -->
<g id="edge19" class="edge">
<title>CartComponent&#45;&gt;AppModule</title>
<path fill="none" stroke="black" d="M1801.43,-122.13C1801.43,-142.57 1801.43,-173 1801.43,-173 1801.43,-173 1199.87,-173 1199.87,-173"/>
<polygon fill="black" stroke="black" points="1199.87,-169.5 1189.87,-173 1199.87,-176.5 1199.87,-169.5"/>
</g>
<!-- FooterComponent -->
<g id="node4" class="node">
<title>FooterComponent</title>
<polygon fill="#ffffb3" stroke="black" points="1747.88,-122 1630.12,-122 1630.12,-86 1747.88,-86 1747.88,-122"/>
<text text-anchor="middle" x="1689" y="-99.8" font-family="Times,serif" font-size="14.00">FooterComponent</text>
</g>
<!-- FooterComponent&#45;&gt;AppModule -->
<g id="edge4" class="edge">
<title>FooterComponent&#45;&gt;AppModule</title>
<path fill="none" stroke="black" d="M1669.35,-122.17C1669.35,-141.09 1669.35,-168 1669.35,-168 1669.35,-168 1199.78,-168 1199.78,-168"/>
<polygon fill="black" stroke="black" points="1199.78,-164.5 1189.78,-168 1199.78,-171.5 1199.78,-164.5"/>
</g>
<!-- FooterComponent&#45;&gt;AppModule -->
<g id="edge20" class="edge">
<title>FooterComponent&#45;&gt;AppModule</title>
<path fill="none" stroke="black" d="M1708.65,-122.31C1708.65,-142.15 1708.65,-171 1708.65,-171 1708.65,-171 1199.68,-171 1199.68,-171"/>
<polygon fill="black" stroke="black" points="1199.68,-167.5 1189.68,-171 1199.68,-174.5 1199.68,-167.5"/>
</g>
<!-- ForgotComponent -->
<g id="node5" class="node">
<title>ForgotComponent</title>
<polygon fill="#ffffb3" stroke="black" points="1612.17,-122 1493.83,-122 1493.83,-86 1612.17,-86 1612.17,-122"/>
<text text-anchor="middle" x="1553" y="-99.8" font-family="Times,serif" font-size="14.00">ForgotComponent</text>
</g>
<!-- ForgotComponent&#45;&gt;AppModule -->
<g id="edge5" class="edge">
<title>ForgotComponent&#45;&gt;AppModule</title>
<path fill="none" stroke="black" d="M1533.22,-122.02C1533.22,-139.37 1533.22,-163 1533.22,-163 1533.22,-163 1199.96,-163 1199.96,-163"/>
<polygon fill="black" stroke="black" points="1199.96,-159.5 1189.96,-163 1199.96,-166.5 1199.96,-159.5"/>
</g>
<!-- ForgotComponent&#45;&gt;AppModule -->
<g id="edge21" class="edge">
<title>ForgotComponent&#45;&gt;AppModule</title>
<path fill="none" stroke="black" d="M1572.78,-122.27C1572.78,-140.56 1572.78,-166 1572.78,-166 1572.78,-166 1199.89,-166 1199.89,-166"/>
<polygon fill="black" stroke="black" points="1199.89,-162.5 1189.89,-166 1199.89,-169.5 1199.89,-162.5"/>
</g>
<!-- HomeComponent -->
<g id="node6" class="node">
<title>HomeComponent</title>
<polygon fill="#ffffb3" stroke="black" points="1475.55,-122 1360.45,-122 1360.45,-86 1475.55,-86 1475.55,-122"/>
<text text-anchor="middle" x="1418" y="-99.8" font-family="Times,serif" font-size="14.00">HomeComponent</text>
</g>
<!-- HomeComponent&#45;&gt;AppModule -->
<g id="edge6" class="edge">
<title>HomeComponent&#45;&gt;AppModule</title>
<path fill="none" stroke="black" d="M1437.26,-122.04C1437.26,-138.73 1437.26,-161 1437.26,-161 1437.26,-161 1199.75,-161 1199.75,-161"/>
<polygon fill="black" stroke="black" points="1199.75,-157.5 1189.75,-161 1199.75,-164.5 1199.75,-157.5"/>
</g>
<!-- HomeComponent&#45;&gt;AppModule -->
<g id="edge22" class="edge">
<title>HomeComponent&#45;&gt;AppModule</title>
<path fill="none" stroke="black" d="M1398.74,-122.01C1398.74,-138.05 1398.74,-159 1398.74,-159 1398.74,-159 1199.69,-159 1199.69,-159"/>
<polygon fill="black" stroke="black" points="1199.69,-155.5 1189.69,-159 1199.69,-162.5 1199.69,-155.5"/>
</g>
<!-- LoginComponent -->
<g id="node7" class="node">
<title>LoginComponent</title>
<polygon fill="#ffffb3" stroke="black" points="1342.28,-122 1227.72,-122 1227.72,-86 1342.28,-86 1342.28,-122"/>
<text text-anchor="middle" x="1285" y="-99.8" font-family="Times,serif" font-size="14.00">LoginComponent</text>
</g>
<!-- LoginComponent&#45;&gt;AppModule -->
<g id="edge7" class="edge">
<title>LoginComponent&#45;&gt;AppModule</title>
<path fill="none" stroke="black" d="M1304.13,-122.19C1304.13,-137.18 1304.13,-156 1304.13,-156 1304.13,-156 1199.84,-156 1199.84,-156"/>
<polygon fill="black" stroke="black" points="1199.84,-152.5 1189.84,-156 1199.84,-159.5 1199.84,-152.5"/>
</g>
<!-- LoginComponent&#45;&gt;AppModule -->
<g id="edge23" class="edge">
<title>LoginComponent&#45;&gt;AppModule</title>
<path fill="none" stroke="black" d="M1265.87,-122.05C1265.87,-136.37 1265.87,-154 1265.87,-154 1265.87,-154 1199.89,-154 1199.89,-154"/>
<polygon fill="black" stroke="black" points="1199.89,-150.5 1189.89,-154 1199.89,-157.5 1199.89,-150.5"/>
</g>
<!-- NavbarComponent -->
<g id="node8" class="node">
<title>NavbarComponent</title>
<polygon fill="#ffffb3" stroke="black" points="1209.03,-122 1086.97,-122 1086.97,-86 1209.03,-86 1209.03,-122"/>
<text text-anchor="middle" x="1148" y="-99.8" font-family="Times,serif" font-size="14.00">NavbarComponent</text>
</g>
<!-- NavbarComponent&#45;&gt;AppModule -->
<g id="edge8" class="edge">
<title>NavbarComponent&#45;&gt;AppModule</title>
<path fill="none" stroke="black" d="M1134.06,-122.11C1134.06,-122.11 1134.06,-140.99 1134.06,-140.99"/>
<polygon fill="black" stroke="black" points="1130.56,-140.99 1134.06,-150.99 1137.56,-140.99 1130.56,-140.99"/>
</g>
<!-- NavbarComponent&#45;&gt;AppModule -->
<g id="edge24" class="edge">
<title>NavbarComponent&#45;&gt;AppModule</title>
<path fill="none" stroke="black" d="M1161.94,-122.11C1161.94,-122.11 1161.94,-140.99 1161.94,-140.99"/>
<polygon fill="black" stroke="black" points="1158.44,-140.99 1161.94,-150.99 1165.44,-140.99 1158.44,-140.99"/>
</g>
<!-- OrdersComponent -->
<g id="node9" class="node">
<title>OrdersComponent</title>
<polygon fill="#ffffb3" stroke="black" points="1068.92,-122 949.08,-122 949.08,-86 1068.92,-86 1068.92,-122"/>
<text text-anchor="middle" x="1009" y="-99.8" font-family="Times,serif" font-size="14.00">OrdersComponent</text>
</g>
<!-- OrdersComponent&#45;&gt;AppModule -->
<g id="edge9" class="edge">
<title>OrdersComponent&#45;&gt;AppModule</title>
<path fill="none" stroke="black" d="M1028.9,-122.05C1028.9,-136.37 1028.9,-154 1028.9,-154 1028.9,-154 1096.01,-154 1096.01,-154"/>
<polygon fill="black" stroke="black" points="1096.01,-157.5 1106.01,-154 1096.01,-150.5 1096.01,-157.5"/>
</g>
<!-- OrdersComponent&#45;&gt;AppModule -->
<g id="edge25" class="edge">
<title>OrdersComponent&#45;&gt;AppModule</title>
<path fill="none" stroke="black" d="M989.1,-122.19C989.1,-137.18 989.1,-156 989.1,-156 989.1,-156 1096.25,-156 1096.25,-156"/>
<polygon fill="black" stroke="black" points="1096.25,-159.5 1106.25,-156 1096.25,-152.5 1096.25,-159.5"/>
</g>
<!-- ProductDetailComponent -->
<g id="node10" class="node">
<title>ProductDetailComponent</title>
<polygon fill="#ffffb3" stroke="black" points="931.59,-122 772.41,-122 772.41,-86 931.59,-86 931.59,-122"/>
<text text-anchor="middle" x="852" y="-99.8" font-family="Times,serif" font-size="14.00">ProductDetailComponent</text>
</g>
<!-- ProductDetailComponent&#45;&gt;AppModule -->
<g id="edge10" class="edge">
<title>ProductDetailComponent&#45;&gt;AppModule</title>
<path fill="none" stroke="black" d="M825.49,-122.04C825.49,-138.73 825.49,-161 825.49,-161 825.49,-161 1096.17,-161 1096.17,-161"/>
<polygon fill="black" stroke="black" points="1096.17,-164.5 1106.17,-161 1096.17,-157.5 1096.17,-164.5"/>
</g>
<!-- ProductDetailComponent&#45;&gt;AppModule -->
<g id="edge26" class="edge">
<title>ProductDetailComponent&#45;&gt;AppModule</title>
<path fill="none" stroke="black" d="M878.51,-122.01C878.51,-138.05 878.51,-159 878.51,-159 878.51,-159 1096.19,-159 1096.19,-159"/>
<polygon fill="black" stroke="black" points="1096.19,-162.5 1106.19,-159 1096.19,-155.5 1096.19,-162.5"/>
</g>
<!-- ProductsComponent -->
<g id="node11" class="node">
<title>ProductsComponent</title>
<polygon fill="#ffffb3" stroke="black" points="754.33,-122 623.67,-122 623.67,-86 754.33,-86 754.33,-122"/>
<text text-anchor="middle" x="689" y="-99.8" font-family="Times,serif" font-size="14.00">ProductsComponent</text>
</g>
<!-- ProductsComponent&#45;&gt;AppModule -->
<g id="edge11" class="edge">
<title>ProductsComponent&#45;&gt;AppModule</title>
<path fill="none" stroke="black" d="M667.28,-122.27C667.28,-140.56 667.28,-166 667.28,-166 667.28,-166 1096.18,-166 1096.18,-166"/>
<polygon fill="black" stroke="black" points="1096.18,-169.5 1106.18,-166 1096.18,-162.5 1096.18,-169.5"/>
</g>
<!-- ProductsComponent&#45;&gt;AppModule -->
<g id="edge27" class="edge">
<title>ProductsComponent&#45;&gt;AppModule</title>
<path fill="none" stroke="black" d="M710.72,-122.02C710.72,-139.37 710.72,-163 710.72,-163 710.72,-163 1096.07,-163 1096.07,-163"/>
<polygon fill="black" stroke="black" points="1096.07,-166.5 1106.07,-163 1096.07,-159.5 1096.07,-166.5"/>
</g>
<!-- ProfileComponent -->
<g id="node12" class="node">
<title>ProfileComponent</title>
<polygon fill="#ffffb3" stroke="black" points="605.93,-122 486.07,-122 486.07,-86 605.93,-86 605.93,-122"/>
<text text-anchor="middle" x="546" y="-99.8" font-family="Times,serif" font-size="14.00">ProfileComponent</text>
</g>
<!-- ProfileComponent&#45;&gt;AppModule -->
<g id="edge12" class="edge">
<title>ProfileComponent&#45;&gt;AppModule</title>
<path fill="none" stroke="black" d="M526.09,-122.31C526.09,-142.15 526.09,-171 526.09,-171 526.09,-171 1096.23,-171 1096.23,-171"/>
<polygon fill="black" stroke="black" points="1096.23,-174.5 1106.23,-171 1096.23,-167.5 1096.23,-174.5"/>
</g>
<!-- ProfileComponent&#45;&gt;AppModule -->
<g id="edge28" class="edge">
<title>ProfileComponent&#45;&gt;AppModule</title>
<path fill="none" stroke="black" d="M565.91,-122.17C565.91,-141.09 565.91,-168 565.91,-168 565.91,-168 1096.14,-168 1096.14,-168"/>
<polygon fill="black" stroke="black" points="1096.14,-171.5 1106.14,-168 1096.14,-164.5 1096.14,-171.5"/>
</g>
<!-- RegisterComponent -->
<g id="node13" class="node">
<title>RegisterComponent</title>
<polygon fill="#ffffb3" stroke="black" points="467.98,-122 340.02,-122 340.02,-86 467.98,-86 467.98,-122"/>
<text text-anchor="middle" x="404" y="-99.8" font-family="Times,serif" font-size="14.00">RegisterComponent</text>
</g>
<!-- RegisterComponent&#45;&gt;AppModule -->
<g id="edge13" class="edge">
<title>RegisterComponent&#45;&gt;AppModule</title>
<path fill="none" stroke="black" d="M425.33,-122.13C425.33,-142.57 425.33,-173 425.33,-173 425.33,-173 1096.29,-173 1096.29,-173"/>
<polygon fill="black" stroke="black" points="1096.29,-176.5 1106.29,-173 1096.29,-169.5 1096.29,-176.5"/>
</g>
<!-- RegisterComponent&#45;&gt;AppModule -->
<g id="edge29" class="edge">
<title>RegisterComponent&#45;&gt;AppModule</title>
<path fill="none" stroke="black" d="M382.67,-122.28C382.67,-143.32 382.67,-175 382.67,-175 382.67,-175 1096.31,-175 1096.31,-175"/>
<polygon fill="black" stroke="black" points="1096.31,-178.5 1106.31,-175 1096.31,-171.5 1096.31,-178.5"/>
</g>
<!-- AppComponent  -->
<g id="node16" class="node">
<title>AppComponent </title>
<polygon fill="#80b1d3" stroke="black" points="1202.44,-252 1093.56,-252 1093.56,-216 1202.44,-216 1202.44,-252"/>
<text text-anchor="middle" x="1148" y="-229.8" font-family="Times,serif" font-size="14.00">AppComponent </text>
</g>
<!-- AppModule&#45;&gt;AppComponent  -->
<g id="edge15" class="edge">
<title>AppModule&#45;&gt;AppComponent </title>
<path fill="none" stroke="black" stroke-dasharray="1,5" d="M1134.06,-187.11C1134.06,-187.11 1134.06,-205.99 1134.06,-205.99"/>
<polygon fill="black" stroke="black" points="1130.56,-205.99 1134.06,-215.99 1137.56,-205.99 1130.56,-205.99"/>
</g>
<!-- AppModule&#45;&gt;AppComponent  -->
<g id="edge31" class="edge">
<title>AppModule&#45;&gt;AppComponent </title>
<path fill="none" stroke="black" stroke-dasharray="1,5" d="M1161.94,-187.11C1161.94,-187.11 1161.94,-205.99 1161.94,-205.99"/>
<polygon fill="black" stroke="black" points="1158.44,-205.99 1161.94,-215.99 1165.44,-205.99 1158.44,-205.99"/>
</g>
<!-- AppRoutingModule -->
<g id="node15" class="node">
<title>AppRoutingModule</title>
<polygon fill="#8dd3c7" stroke="black" points="316.27,-122 313.27,-126 292.27,-126 289.27,-122 187.73,-122 187.73,-86 316.27,-86 316.27,-122"/>
<text text-anchor="middle" x="252" y="-99.8" font-family="Times,serif" font-size="14.00">AppRoutingModule</text>
</g>
<!-- AppRoutingModule&#45;&gt;AppModule -->
<g id="edge14" class="edge">
<title>AppRoutingModule&#45;&gt;AppModule</title>
<path fill="none" stroke="black" d="M230.54,-122.01C230.54,-144.49 230.54,-180 230.54,-180 230.54,-180 1096.19,-180 1096.19,-180"/>
<polygon fill="black" stroke="black" points="1096.19,-183.5 1106.19,-180 1096.19,-176.5 1096.19,-183.5"/>
</g>
<!-- AppRoutingModule&#45;&gt;AppModule -->
<g id="edge30" class="edge">
<title>AppRoutingModule&#45;&gt;AppModule</title>
<path fill="none" stroke="black" d="M273.46,-122.29C273.46,-144.21 273.46,-178 273.46,-178 273.46,-178 1096.11,-178 1096.11,-178"/>
<polygon fill="black" stroke="black" points="1096.11,-181.5 1106.11,-178 1096.11,-174.5 1096.11,-181.5"/>
</g>
<!-- ProductService -->
<g id="node17" class="node">
<title>ProductService</title>
<ellipse fill="#fdb462" stroke="black" cx="94" cy="-104" rx="70.06" ry="18"/>
<text text-anchor="middle" x="94" y="-99.8" font-family="Times,serif" font-size="14.00">ProductService</text>
</g>
<!-- ProductService&#45;&gt;AppModule -->
<g id="edge16" class="edge">
<title>ProductService&#45;&gt;AppModule</title>
<path fill="none" stroke="black" d="M117.34,-121.14C117.34,-144.38 117.34,-183 117.34,-183 117.34,-183 1096.32,-183 1096.32,-183"/>
<polygon fill="black" stroke="black" points="1096.32,-186.5 1106.32,-183 1096.32,-179.5 1096.32,-186.5"/>
</g>
<!-- ProductService&#45;&gt;AppModule -->
<g id="edge32" class="edge">
<title>ProductService&#45;&gt;AppModule</title>
<path fill="none" stroke="black" d="M70.66,-121.18C70.66,-144.95 70.66,-185 70.66,-185 70.66,-185 1096.1,-185 1096.1,-185"/>
<polygon fill="black" stroke="black" points="1096.1,-188.5 1106.1,-185 1096.1,-181.5 1096.1,-188.5"/>
</g>
</g>
</svg>
