<?xml version="1.0" encoding="UTF-8" standalone="no"?>
<!DOCTYPE svg PUBLIC "-//W3C//DTD SVG 1.1//EN"
 "http://www.w3.org/Graphics/SVG/1.1/DTD/svg11.dtd">
<!-- Generated by graphviz version 2.47.0 (20210316.0004)
 -->
<!-- Title: dependencies Pages: 1 -->
<svg width="2165pt" height="284pt"
 viewBox="0.00 0.00 2165.00 284.00" xmlns="http://www.w3.org/2000/svg" xmlns:xlink="http://www.w3.org/1999/xlink">
<g id="graph0" class="graph" transform="scale(1 1) rotate(0) translate(4 280)">
<title>dependencies</title>
<polygon fill="white" stroke="transparent" points="-4,4 -4,-280 2161,-280 2161,4 -4,4"/>
<text text-anchor="start" x="1057.51" y="-42.4" font-family="Times-12" font-weight="bold" font-size="14.00">Legend</text>
<polygon fill="#ffffb3" stroke="transparent" points="844.5,-10 844.5,-30 864.5,-30 864.5,-10 844.5,-10"/>
<text text-anchor="start" x="868.13" y="-15.4" font-family="Times-12" font-size="14.00"> &#160;Declarations</text>
<polygon fill="#8dd3c7" stroke="transparent" points="957.5,-10 957.5,-30 977.5,-30 977.5,-10 957.5,-10"/>
<text text-anchor="start" x="981.23" y="-15.4" font-family="Times-12" font-size="14.00"> &#160;Module</text>
<polygon fill="#80b1d3" stroke="transparent" points="1043.5,-10 1043.5,-30 1063.5,-30 1063.5,-10 1043.5,-10"/>
<text text-anchor="start" x="1067.28" y="-15.4" font-family="Times-12" font-size="14.00"> &#160;Bootstrap</text>
<polygon fill="#fdb462" stroke="transparent" points="1140.5,-10 1140.5,-30 1160.5,-30 1160.5,-10 1140.5,-10"/>
<text text-anchor="start" x="1164.17" y="-15.4" font-family="Times-12" font-size="14.00"> &#160;Providers</text>
<polygon fill="#fb8072" stroke="transparent" points="1236.5,-10 1236.5,-30 1256.5,-30 1256.5,-10 1236.5,-10"/>
<text text-anchor="start" x="1260.23" y="-15.4" font-family="Times-12" font-size="14.00"> &#160;Exports</text>
<g id="clust1" class="cluster">
<title>cluster_AppModule</title>
<polygon fill="none" stroke="black" stroke-dasharray="1,5" points="8,-70 8,-268 2149,-268 2149,-70 8,-70"/>
</g>
<g id="clust16" class="cluster">
<title>cluster_AppModule_imports</title>
<polygon fill="none" stroke="black" points="1997,-78 1997,-130 2141,-130 2141,-78 1997,-78"/>
</g>
<g id="clust2" class="cluster">
<title>cluster_AppModule_declarations</title>
<polygon fill="none" stroke="black" points="180,-78 180,-130 1989,-130 1989,-78 180,-78"/>
</g>
<g id="clust18" class="cluster">
<title>cluster_AppModule_bootstrap</title>
<polygon fill="none" stroke="black" points="1071,-208 1071,-260 1195,-260 1195,-208 1071,-208"/>
</g>
<g id="clust19" class="cluster">
<title>cluster_AppModule_providers</title>
<polygon fill="none" stroke="black" points="16,-78 16,-130 172,-130 172,-78 16,-78"/>
</g>
<!-- AdminComponent -->
<g id="node1" class="node">
<title>AdminComponent</title>
<polygon fill="#ffffb3" stroke="black" points="1981.22,-122 1860.78,-122 1860.78,-86 1981.22,-86 1981.22,-122"/>
<text text-anchor="middle" x="1921" y="-99.8" font-family="Times,serif" font-size="14.00">AdminComponent</text>
</g>
<!-- AppModule -->
<g id="node14" class="node">
<title>AppModule</title>
<polygon fill="#8dd3c7" stroke="black" points="1174.66,-187 1171.66,-191 1150.66,-191 1147.66,-187 1091.34,-187 1091.34,-151 1174.66,-151 1174.66,-187"/>
<text text-anchor="middle" x="1133" y="-164.8" font-family="Times,serif" font-size="14.00">AppModule</text>
</g>
<!-- AdminComponent&#45;&gt;AppModule -->
<g id="edge1" class="edge">
<title>AdminComponent&#45;&gt;AppModule</title>
<path fill="none" stroke="black" d="M1921,-122.29C1921,-144.21 1921,-178 1921,-178 1921,-178 1184.81,-178 1184.81,-178"/>
<polygon fill="black" stroke="black" points="1184.81,-174.5 1174.81,-178 1184.81,-181.5 1184.81,-174.5"/>
</g>
<!-- AppComponent -->
<g id="node2" class="node">
<title>AppComponent</title>
<polygon fill="#ffffb3" stroke="black" points="1842.94,-122 1737.06,-122 1737.06,-86 1842.94,-86 1842.94,-122"/>
<text text-anchor="middle" x="1790" y="-99.8" font-family="Times,serif" font-size="14.00">AppComponent</text>
</g>
<!-- AppComponent&#45;&gt;AppModule -->
<g id="edge2" class="edge">
<title>AppComponent&#45;&gt;AppModule</title>
<path fill="none" stroke="black" d="M1790,-122.03C1790,-142.77 1790,-174 1790,-174 1790,-174 1184.85,-174 1184.85,-174"/>
<polygon fill="black" stroke="black" points="1184.85,-170.5 1174.85,-174 1184.85,-177.5 1184.85,-170.5"/>
</g>
<!-- CartComponent -->
<g id="node3" class="node">
<title>CartComponent</title>
<polygon fill="#ffffb3" stroke="black" points="1719.94,-122 1614.06,-122 1614.06,-86 1719.94,-86 1719.94,-122"/>
<text text-anchor="middle" x="1667" y="-99.8" font-family="Times,serif" font-size="14.00">CartComponent</text>
</g>
<!-- CartComponent&#45;&gt;AppModule -->
<g id="edge3" class="edge">
<title>CartComponent&#45;&gt;AppModule</title>
<path fill="none" stroke="black" d="M1667,-122.11C1667,-141.34 1667,-169 1667,-169 1667,-169 1184.9,-169 1184.9,-169"/>
<polygon fill="black" stroke="black" points="1184.9,-165.5 1174.9,-169 1184.9,-172.5 1184.9,-165.5"/>
</g>
<!-- FooterComponent -->
<g id="node4" class="node">
<title>FooterComponent</title>
<polygon fill="#ffffb3" stroke="black" points="1595.88,-122 1478.12,-122 1478.12,-86 1595.88,-86 1595.88,-122"/>
<text text-anchor="middle" x="1537" y="-99.8" font-family="Times,serif" font-size="14.00">FooterComponent</text>
</g>
<!-- FooterComponent&#45;&gt;AppModule -->
<g id="edge4" class="edge">
<title>FooterComponent&#45;&gt;AppModule</title>
<path fill="none" stroke="black" d="M1537,-122.3C1537,-140.27 1537,-165 1537,-165 1537,-165 1184.71,-165 1184.71,-165"/>
<polygon fill="black" stroke="black" points="1184.71,-161.5 1174.71,-165 1184.71,-168.5 1184.71,-161.5"/>
</g>
<!-- ForgotComponent -->
<g id="node5" class="node">
<title>ForgotComponent</title>
<polygon fill="#ffffb3" stroke="black" points="1460.17,-122 1341.83,-122 1341.83,-86 1460.17,-86 1460.17,-122"/>
<text text-anchor="middle" x="1401" y="-99.8" font-family="Times,serif" font-size="14.00">ForgotComponent</text>
</g>
<!-- ForgotComponent&#45;&gt;AppModule -->
<g id="edge5" class="edge">
<title>ForgotComponent&#45;&gt;AppModule</title>
<path fill="none" stroke="black" d="M1401,-122.03C1401,-138.4 1401,-160 1401,-160 1401,-160 1184.88,-160 1184.88,-160"/>
<polygon fill="black" stroke="black" points="1184.88,-156.5 1174.88,-160 1184.87,-163.5 1184.88,-156.5"/>
</g>
<!-- HomeComponent -->
<g id="node6" class="node">
<title>HomeComponent</title>
<polygon fill="#ffffb3" stroke="black" points="1323.55,-122 1208.45,-122 1208.45,-86 1323.55,-86 1323.55,-122"/>
<text text-anchor="middle" x="1266" y="-99.8" font-family="Times,serif" font-size="14.00">HomeComponent</text>
</g>
<!-- HomeComponent&#45;&gt;AppModule -->
<g id="edge6" class="edge">
<title>HomeComponent&#45;&gt;AppModule</title>
<path fill="none" stroke="black" d="M1266,-122.19C1266,-137.18 1266,-156 1266,-156 1266,-156 1184.72,-156 1184.72,-156"/>
<polygon fill="black" stroke="black" points="1184.72,-152.5 1174.72,-156 1184.72,-159.5 1184.72,-152.5"/>
</g>
<!-- LoginComponent -->
<g id="node7" class="node">
<title>LoginComponent</title>
<polygon fill="#ffffb3" stroke="black" points="1190.28,-122 1075.72,-122 1075.72,-86 1190.28,-86 1190.28,-122"/>
<text text-anchor="middle" x="1133" y="-99.8" font-family="Times,serif" font-size="14.00">LoginComponent</text>
</g>
<!-- LoginComponent&#45;&gt;AppModule -->
<g id="edge7" class="edge">
<title>LoginComponent&#45;&gt;AppModule</title>
<path fill="none" stroke="black" d="M1133,-122.11C1133,-122.11 1133,-140.99 1133,-140.99"/>
<polygon fill="black" stroke="black" points="1129.5,-140.99 1133,-150.99 1136.5,-140.99 1129.5,-140.99"/>
</g>
<!-- NavbarComponent -->
<g id="node8" class="node">
<title>NavbarComponent</title>
<polygon fill="#ffffb3" stroke="black" points="1057.03,-122 934.97,-122 934.97,-86 1057.03,-86 1057.03,-122"/>
<text text-anchor="middle" x="996" y="-99.8" font-family="Times,serif" font-size="14.00">NavbarComponent</text>
</g>
<!-- NavbarComponent&#45;&gt;AppModule -->
<g id="edge8" class="edge">
<title>NavbarComponent&#45;&gt;AppModule</title>
<path fill="none" stroke="black" d="M996,-122.19C996,-137.18 996,-156 996,-156 996,-156 1081.15,-156 1081.15,-156"/>
<polygon fill="black" stroke="black" points="1081.15,-159.5 1091.15,-156 1081.15,-152.5 1081.15,-159.5"/>
</g>
<!-- OrdersComponent -->
<g id="node9" class="node">
<title>OrdersComponent</title>
<polygon fill="#ffffb3" stroke="black" points="916.92,-122 797.08,-122 797.08,-86 916.92,-86 916.92,-122"/>
<text text-anchor="middle" x="857" y="-99.8" font-family="Times,serif" font-size="14.00">OrdersComponent</text>
</g>
<!-- OrdersComponent&#45;&gt;AppModule -->
<g id="edge9" class="edge">
<title>OrdersComponent&#45;&gt;AppModule</title>
<path fill="none" stroke="black" d="M857,-122.03C857,-138.4 857,-160 857,-160 857,-160 1081.08,-160 1081.08,-160"/>
<polygon fill="black" stroke="black" points="1081.08,-163.5 1091.08,-160 1081.08,-156.5 1081.08,-163.5"/>
</g>
<!-- ProductDetailComponent -->
<g id="node10" class="node">
<title>ProductDetailComponent</title>
<polygon fill="#ffffb3" stroke="black" points="779.59,-122 620.41,-122 620.41,-86 779.59,-86 779.59,-122"/>
<text text-anchor="middle" x="700" y="-99.8" font-family="Times,serif" font-size="14.00">ProductDetailComponent</text>
</g>
<!-- ProductDetailComponent&#45;&gt;AppModule -->
<g id="edge10" class="edge">
<title>ProductDetailComponent&#45;&gt;AppModule</title>
<path fill="none" stroke="black" d="M700,-122.3C700,-140.27 700,-165 700,-165 700,-165 1081.09,-165 1081.09,-165"/>
<polygon fill="black" stroke="black" points="1081.09,-168.5 1091.09,-165 1081.09,-161.5 1081.09,-168.5"/>
</g>
<!-- ProductsComponent -->
<g id="node11" class="node">
<title>ProductsComponent</title>
<polygon fill="#ffffb3" stroke="black" points="602.33,-122 471.67,-122 471.67,-86 602.33,-86 602.33,-122"/>
<text text-anchor="middle" x="537" y="-99.8" font-family="Times,serif" font-size="14.00">ProductsComponent</text>
</g>
<!-- ProductsComponent&#45;&gt;AppModule -->
<g id="edge11" class="edge">
<title>ProductsComponent&#45;&gt;AppModule</title>
<path fill="none" stroke="black" d="M537,-122.11C537,-141.34 537,-169 537,-169 537,-169 1081.09,-169 1081.09,-169"/>
<polygon fill="black" stroke="black" points="1081.09,-172.5 1091.09,-169 1081.09,-165.5 1081.09,-172.5"/>
</g>
<!-- ProfileComponent -->
<g id="node12" class="node">
<title>ProfileComponent</title>
<polygon fill="#ffffb3" stroke="black" points="453.93,-122 334.07,-122 334.07,-86 453.93,-86 453.93,-122"/>
<text text-anchor="middle" x="394" y="-99.8" font-family="Times,serif" font-size="14.00">ProfileComponent</text>
</g>
<!-- ProfileComponent&#45;&gt;AppModule -->
<g id="edge12" class="edge">
<title>ProfileComponent&#45;&gt;AppModule</title>
<path fill="none" stroke="black" d="M394,-122.03C394,-142.77 394,-174 394,-174 394,-174 1081.15,-174 1081.15,-174"/>
<polygon fill="black" stroke="black" points="1081.15,-177.5 1091.15,-174 1081.15,-170.5 1081.15,-177.5"/>
</g>
<!-- RegisterComponent -->
<g id="node13" class="node">
<title>RegisterComponent</title>
<polygon fill="#ffffb3" stroke="black" points="315.98,-122 188.02,-122 188.02,-86 315.98,-86 315.98,-122"/>
<text text-anchor="middle" x="252" y="-99.8" font-family="Times,serif" font-size="14.00">RegisterComponent</text>
</g>
<!-- RegisterComponent&#45;&gt;AppModule -->
<g id="edge13" class="edge">
<title>RegisterComponent&#45;&gt;AppModule</title>
<path fill="none" stroke="black" d="M252,-122.29C252,-144.21 252,-178 252,-178 252,-178 1081.1,-178 1081.1,-178"/>
<polygon fill="black" stroke="black" points="1081.1,-181.5 1091.1,-178 1081.1,-174.5 1081.1,-181.5"/>
</g>
<!-- AppComponent  -->
<g id="node16" class="node">
<title>AppComponent </title>
<polygon fill="#80b1d3" stroke="black" points="1187.44,-252 1078.56,-252 1078.56,-216 1187.44,-216 1187.44,-252"/>
<text text-anchor="middle" x="1133" y="-229.8" font-family="Times,serif" font-size="14.00">AppComponent </text>
</g>
<!-- AppModule&#45;&gt;AppComponent  -->
<g id="edge15" class="edge">
<title>AppModule&#45;&gt;AppComponent </title>
<path fill="none" stroke="black" stroke-dasharray="1,5" d="M1133,-187.11C1133,-187.11 1133,-205.99 1133,-205.99"/>
<polygon fill="black" stroke="black" points="1129.5,-205.99 1133,-215.99 1136.5,-205.99 1129.5,-205.99"/>
</g>
<!-- AppRoutingModule -->
<g id="node15" class="node">
<title>AppRoutingModule</title>
<polygon fill="#8dd3c7" stroke="black" points="2133.27,-122 2130.27,-126 2109.27,-126 2106.27,-122 2004.73,-122 2004.73,-86 2133.27,-86 2133.27,-122"/>
<text text-anchor="middle" x="2069" y="-99.8" font-family="Times,serif" font-size="14.00">AppRoutingModule</text>
</g>
<!-- AppRoutingModule&#45;&gt;AppModule -->
<g id="edge14" class="edge">
<title>AppRoutingModule&#45;&gt;AppModule</title>
<path fill="none" stroke="black" d="M2069,-122.32C2069,-145.66 2069,-183 2069,-183 2069,-183 1184.73,-183 1184.73,-183"/>
<polygon fill="black" stroke="black" points="1184.73,-179.5 1174.73,-183 1184.73,-186.5 1184.73,-179.5"/>
</g>
<!-- ProductService -->
<g id="node17" class="node">
<title>ProductService</title>
<ellipse fill="#fdb462" stroke="black" cx="94" cy="-104" rx="70.06" ry="18"/>
<text text-anchor="middle" x="94" y="-99.8" font-family="Times,serif" font-size="14.00">ProductService</text>
</g>
<!-- ProductService&#45;&gt;AppModule -->
<g id="edge16" class="edge">
<title>ProductService&#45;&gt;AppModule</title>
<path fill="none" stroke="black" d="M94,-122.32C94,-145.66 94,-183 94,-183 94,-183 1081.31,-183 1081.31,-183"/>
<polygon fill="black" stroke="black" points="1081.31,-186.5 1091.31,-183 1081.31,-179.5 1081.31,-186.5"/>
</g>
</g>
</svg>
